<svg width="320" height="320" viewBox="0 0 320 320" fill="none" xmlns="http://www.w3.org/2000/svg">
  <rect width="320" height="320" rx="28" fill="#F6EFEA"/>
  <rect x="20" y="20" width="280" height="280" rx="24" fill="#ffffff"/>
  <rect x="36" y="36" width="76" height="76" rx="14" fill="#4A3A37"/>
  <rect x="54" y="54" width="40" height="40" rx="6" fill="#ffffff"/>
  <rect x="208" y="36" width="76" height="76" rx="14" fill="#4A3A37"/>
  <rect x="226" y="54" width="40" height="40" rx="6" fill="#ffffff"/>
  <rect x="36" y="208" width="76" height="76" rx="14" fill="#4A3A37"/>
  <rect x="54" y="226" width="40" height="40" rx="6" fill="#ffffff"/>
  <rect x="132" y="48" width="14" height="14" rx="3" fill="#6F5F5B"/>
  <rect x="154" y="48" width="14" height="14" rx="3" fill="#6F5F5B"/>
  <rect x="176" y="48" width="14" height="14" rx="3" fill="#6F5F5B"/>
  <rect x="132" y="70" width="14" height="14" rx="3" fill="#6F5F5B"/>
  <rect x="176" y="70" width="14" height="14" rx="3" fill="#6F5F5B"/>
  <rect x="132" y="126" width="14" height="14" rx="3" fill="#6F5F5B"/>
  <rect x="154" y="126" width="14" height="14" rx="3" fill="#6F5F5B"/>
  <rect x="176" y="126" width="14" height="14" rx="3" fill="#6F5F5B"/>
  <rect x="198" y="126" width="14" height="14" rx="3" fill="#6F5F5B"/>
  <rect x="132" y="148" width="14" height="14" rx="3" fill="#6F5F5B"/>
  <rect x="198" y="148" width="14" height="14" rx="3" fill="#6F5F5B"/>
  <rect x="220" y="148" width="14" height="14" rx="3" fill="#6F5F5B"/>
  <rect x="88" y="126" width="14" height="14" rx="3" fill="#6F5F5B"/>
  <rect x="88" y="148" width="14" height="14" rx="3" fill="#6F5F5B"/>
  <rect x="110" y="148" width="14" height="14" rx="3" fill="#6F5F5B"/>
  <rect x="132" y="170" width="14" height="14" rx="3" fill="#6F5F5B"/>
  <rect x="154" y="170" width="14" height="14" rx="3" fill="#6F5F5B"/>
  <rect x="198" y="170" width="14" height="14" rx="3" fill="#6F5F5B"/>
  <rect x="220" y="170" width="14" height="14" rx="3" fill="#6F5F5B"/>
  <rect x="132" y="192" width="14" height="14" rx="3" fill="#6F5F5B"/>
  <rect x="176" y="192" width="14" height="14" rx="3" fill="#6F5F5B"/>
  <rect x="198" y="192" width="14" height="14" rx="3" fill="#6F5F5B"/>
  <rect x="132" y="214" width="14" height="14" rx="3" fill="#6F5F5B"/>
  <rect x="154" y="214" width="14" height="14" rx="3" fill="#6F5F5B"/>
  <rect x="176" y="214" width="14" height="14" rx="3" fill="#6F5F5B"/>
  <rect x="198" y="214" width="14" height="14" rx="3" fill="#6F5F5B"/>
  <rect x="220" y="214" width="14" height="14" rx="3" fill="#6F5F5B"/>
</svg>
