<svg width="320" height="320" viewBox="0 0 320 320" fill="none" xmlns="http://www.w3.org/2000/svg">
  <rect width="320" height="320" rx="28" fill="#ffffff"/>
  <rect x="24" y="24" width="272" height="272" rx="20" fill="#F6EFEA"/>
  <rect x="44" y="44" width="64" height="64" rx="10" fill="#2A1F1D"/>
  <rect x="60" y="60" width="32" height="32" rx="4" fill="#F6EFEA"/>
  <rect x="212" y="44" width="64" height="64" rx="10" fill="#2A1F1D"/>
  <rect x="228" y="60" width="32" height="32" rx="4" fill="#F6EFEA"/>
  <rect x="44" y="212" width="64" height="64" rx="10" fill="#2A1F1D"/>
  <rect x="60" y="228" width="32" height="32" rx="4" fill="#F6EFEA"/>
  <rect x="132" y="52" width="16" height="16" fill="#2A1F1D"/>
  <rect x="156" y="52" width="16" height="16" fill="#2A1F1D"/>
  <rect x="180" y="52" width="16" height="16" fill="#2A1F1D"/>
  <rect x="132" y="76" width="16" height="16" fill="#2A1F1D"/>
  <rect x="180" y="76" width="16" height="16" fill="#2A1F1D"/>
  <rect x="132" y="132" width="16" height="16" fill="#2A1F1D"/>
  <rect x="156" y="132" width="16" height="16" fill="#2A1F1D"/>
  <rect x="180" y="132" width="16" height="16" fill="#2A1F1D"/>
  <rect x="204" y="132" width="16" height="16" fill="#2A1F1D"/>
  <rect x="132" y="156" width="16" height="16" fill="#2A1F1D"/>
  <rect x="204" y="156" width="16" height="16" fill="#2A1F1D"/>
  <rect x="228" y="156" width="16" height="16" fill="#2A1F1D"/>
  <rect x="84" y="132" width="16" height="16" fill="#2A1F1D"/>
  <rect x="84" y="156" width="16" height="16" fill="#2A1F1D"/>
  <rect x="108" y="156" width="16" height="16" fill="#2A1F1D"/>
  <rect x="132" y="180" width="16" height="16" fill="#2A1F1D"/>
  <rect x="156" y="180" width="16" height="16" fill="#2A1F1D"/>
  <rect x="204" y="180" width="16" height="16" fill="#2A1F1D"/>
  <rect x="228" y="180" width="16" height="16" fill="#2A1F1D"/>
  <rect x="132" y="204" width="16" height="16" fill="#2A1F1D"/>
  <rect x="180" y="204" width="16" height="16" fill="#2A1F1D"/>
  <rect x="204" y="204" width="16" height="16" fill="#2A1F1D"/>
  <rect x="132" y="228" width="16" height="16" fill="#2A1F1D"/>
  <rect x="156" y="228" width="16" height="16" fill="#2A1F1D"/>
  <rect x="180" y="228" width="16" height="16" fill="#2A1F1D"/>
  <rect x="204" y="228" width="16" height="16" fill="#2A1F1D"/>
  <rect x="228" y="228" width="16" height="16" fill="#2A1F1D"/>
  <text x="160" y="292" text-anchor="middle" fill="#6F5F5B" font-family="Arial, sans-serif" font-size="16">Scan to download</text>
</svg>
